 <svg  version="1.0" xmlns="http://www.w3.org/2000/svg"  width="300.000000pt" height="444.000000pt" viewBox="0 0 300.000000 444.000000"  preserveAspectRatio="xMidYMid meet">  <g transform="translate(0.000000,444.000000) scale(0.100000,-0.100000)" fill="#ffffff" stroke="none"> <path d="M1775 4260 c-4 -6 5 -10 19 -10 14 0 26 5 26 10 0 6 -9 10 -19 10 -11 0 -23 -4 -26 -10z"/> <path d="M1850 4196 c-36 -12 -128 -59 -205 -105 -137 -81 -141 -82 -190 -76 -27 4 -81 10 -119 13 -52 6 -72 12 -80 26 -21 37 -47 57 -69 54 -19 -3 -22 -9 -20 -49 1 -41 -2 -48 -23 -58 -36 -16 -54 -14 -74 11 -17 21 -28 23 -208 30 -185 8 -242 3 -242 -21 0 -16 32 -30 102 -45 35 -8 119 -26 188 -41 69 -15 145 -38 169 -51 24 -13 56 -24 72 -24 15 0 30 -4 33 -9 6 -9 -235 -160 -299 -187 -48 -20 -68 -13 -59 21 5 22 3 25 -19 25 -13 0 -52 9 -87 20 -47 15 -67 17 -82 9 -19 -10 -19 -12 13 -45 l33 -34 -33 -11 c-38 -13 -36 -30 5 -41 16 -5 52 -16 81 -25 50 -15 52 -15 86 6 35 21 132 51 165 51 9 0 85 34 169 76 163 83 188 87 179 32 -18 -118 -18 -126 4 -133 29 -9 49 10 80 81 21 45 37 66 65 83 36 21 37 23 31 64 -5 34 -3 47 11 59 20 18 297 184 358 216 50 25 78 55 73 79 -5 25 -33 25 -108 -1z"/> <path d="M2214 4001 c-46 -8 -66 -19 -334 -185 -209 -130 -276 -186 -308 -259 -20 -44 -21 -67 -23 -363 -1 -221 2 -319 10 -327 13 -13 168 58 182 85 5 9 9 119 9 245 0 125 5 244 10 264 6 22 29 54 58 81 54 50 240 178 312 214 33 17 47 29 44 39 -11 28 -43 27 -92 -1 -127 -74 -334 -219 -365 -254 -40 -47 -62 -53 -52 -13 13 52 66 102 210 195 228 147 253 161 292 162 30 1 39 -4 49 -23 9 -18 13 -150 14 -511 0 -267 -2 -494 -6 -503 -8 -21 -43 -22 -91 -2 -82 35 -177 11 -247 -61 -55 -56 -66 -105 -76 -319 -11 -230 -19 -313 -30 -320 -16 -10 -40 252 -40 432 0 89 4 121 20 158 22 52 24 65 10 65 -5 0 -138 -64 -296 -142 -335 -167 -378 -198 -441 -326 l-38 -76 -5 -230 c-6 -275 -4 -272 -115 -180 -38 31 -71 51 -73 46 -8 -25 38 -85 152 -198 184 -183 333 -278 756 -482 88 -43 84 -53 -12 -28 -129 34 -435 161 -588 243 -181 98 -406 272 -509 395 -219 259 -311 507 -298 807 10 234 75 422 224 649 30 46 52 86 49 89 -21 21 -149 -105 -234 -230 -141 -209 -202 -409 -202 -662 0 -208 27 -318 131 -528 99 -200 234 -360 424 -503 268 -202 673 -380 1015 -448 440 -88 816 -123 1064 -99 l69 6 -35 18 c-20 10 -62 22 -94 28 -72 11 -164 49 -124 50 15 1 31 6 38 13 16 16 17 1484 1 1543 -13 47 -80 116 -151 157 l-48 28 0 603 c0 670 3 637 -68 657 -40 11 -85 11 -148 1z m-964 -1531 c0 -5 -20 -36 -44 -67 -24 -32 -65 -96 -91 -143 -56 -103 -65 -113 -65 -75 1 72 50 174 119 246 44 45 81 63 81 39z m397 -157 c2 -6 -4 -20 -14 -30 -10 -10 -28 -31 -40 -47 -23 -29 -23 -31 -23 -387 0 -196 -3 -364 -6 -373 -8 -21 -30 -21 -38 0 -11 29 -7 741 5 771 16 44 60 84 88 81 13 -2 26 -8 28 -15z m-319 -136 c2 -9 -14 -38 -37 -63 l-41 -46 -2 -222 c-3 -189 -5 -221 -18 -221 -13 0 -15 34 -18 235 -1 129 0 246 3 259 14 58 104 104 113 58z"/> <path d="M750 1227 c0 -21 65 -81 133 -122 114 -69 107 -54 108 -249 0 -110 5 -183 13 -206 19 -52 66 -80 137 -80 86 0 109 -12 109 -55 0 -50 22 -96 59 -128 30 -25 40 -27 120 -27 74 0 93 3 115 21 35 27 56 70 56 112 0 65 13 72 157 75 162 4 177 -1 193 -68 14 -56 47 -103 91 -125 45 -24 205 -20 246 5 35 21 67 75 77 132 8 44 39 58 125 58 107 0 151 52 151 179 0 83 19 73 -185 96 -303 34 -391 46 -665 91 -327 54 -567 113 -775 192 -52 20 -244 101 -257 109 -5 2 -8 -2 -8 -10z m498 -351 c2 -16 1 -40 -3 -53 -5 -20 -8 -23 -20 -13 -15 13 -21 81 -8 94 13 13 28 -1 31 -28z m295 -317 c47 -25 50 -73 8 -118 -62 -66 -155 -23 -149 69 3 38 7 45 28 51 40 11 89 10 113 -2z m765 -5 c30 -20 28 -43 -7 -92 -36 -48 -75 -61 -120 -37 -57 29 -82 117 -38 135 38 15 140 12 165 -6z"/> </g> </svg> 