 <svg version="1.0" xmlns="http://www.w3.org/2000/svg"  width="1149.000000pt" height="390.000000pt" viewBox="0 0 1149.000000 390.000000"  preserveAspectRatio="xMidYMid meet">  <g transform="translate(0.000000,390.000000) scale(0.100000,-0.100000)" fill="#fdf7f7" stroke="none"> <path d="M2090 3411 c-14 -5 -68 -33 -120 -63 -112 -64 -148 -78 -176 -68 -12 5 -43 8 -69 8 -41 -1 -52 3 -70 25 -30 38 -53 35 -61 -9 -8 -43 -27 -52 -68 -31 -38 19 -273 33 -296 18 -24 -17 0 -30 91 -52 123 -28 265 -71 277 -84 6 -5 -94 -73 -156 -106 -52 -27 -67 -31 -80 -21 -28 20 -82 41 -110 44 -22 2 -27 -1 -27 -18 0 -11 -6 -28 -14 -37 -11 -14 -9 -18 15 -28 16 -6 44 -18 62 -25 31 -13 37 -13 65 4 18 11 50 22 72 25 22 2 88 28 146 56 58 28 116 51 128 51 21 0 22 -3 15 -56 -6 -55 -6 -56 17 -52 17 2 31 17 46 48 13 25 34 54 48 65 18 15 25 30 25 57 l0 37 138 76 c145 79 178 104 169 130 -7 16 -27 18 -67 6z"/> <path d="M2315 3252 c-47 -22 -311 -181 -355 -213 -16 -13 -42 -41 -57 -63 l-28 -41 -3 -238 c-4 -267 -5 -265 68 -232 78 35 78 37 82 247 4 221 -10 196 170 320 65 45 118 85 118 89 0 4 -6 9 -12 11 -12 4 -34 -8 -106 -54 -15 -10 -36 -22 -47 -28 -11 -6 -33 -19 -50 -30 -16 -11 -37 -23 -45 -27 -8 -3 -27 -20 -42 -36 -16 -17 -31 -27 -35 -24 -12 13 60 77 176 155 161 108 194 119 206 68 3 -11 4 -181 3 -376 l-3 -355 -30 2 c-16 2 -52 5 -80 8 -71 8 -121 -22 -157 -94 -27 -52 -28 -62 -29 -200 -1 -155 -10 -251 -21 -216 -15 46 -30 284 -25 371 4 52 3 94 0 94 -12 0 -315 -152 -386 -193 -124 -73 -157 -149 -157 -370 0 -161 -5 -168 -75 -118 -50 36 -55 37 -55 15 0 -9 44 -60 98 -113 98 -97 266 -219 352 -256 58 -25 120 -63 120 -74 0 -11 -65 2 -115 24 -279 120 -453 230 -584 370 -100 107 -160 210 -207 356 -24 73 -27 100 -27 209 0 95 5 143 21 200 31 112 41 136 104 242 80 134 78 153 -8 69 -98 -96 -179 -243 -215 -394 -26 -109 -26 -292 1 -388 62 -225 226 -441 442 -586 212 -141 442 -237 686 -285 61 -12 69 -28 13 -28 -35 0 -83 9 -306 55 -103 21 -176 46 -289 97 -59 27 -110 47 -113 44 -13 -12 56 -76 134 -122 16 -10 19 -29 23 -152 5 -131 7 -142 29 -166 20 -21 34 -26 76 -26 62 0 81 -13 88 -64 4 -21 16 -49 28 -62 19 -20 32 -24 83 -24 65 0 101 12 71 24 -9 3 -25 6 -36 6 -24 0 -53 54 -45 86 8 31 63 42 106 21 26 -14 34 -14 58 -1 27 14 156 19 199 8 16 -4 26 -18 33 -45 6 -21 22 -52 36 -69 25 -29 29 -30 107 -30 71 1 85 4 108 24 29 25 47 66 30 66 -6 0 -15 -9 -20 -19 -13 -24 -60 -41 -87 -30 -26 9 -54 46 -54 71 0 40 99 53 142 18 25 -19 26 -19 48 0 17 15 38 20 76 20 76 0 105 27 112 102 4 51 2 57 -19 71 -13 8 -71 20 -129 26 -184 20 -197 23 -175 31 11 4 99 5 196 2 173 -5 229 -1 229 18 0 5 -22 12 -49 16 -71 9 -77 15 -62 61 9 29 11 166 9 568 -3 528 -3 530 -25 565 -13 19 -44 47 -70 61 l-48 26 -5 441 c-6 506 1 473 -97 479 -42 3 -69 -2 -98 -15z m-672 -1099 c-4 -10 -18 -36 -32 -58 -14 -22 -32 -49 -39 -60 -7 -11 -17 -32 -23 -47 -14 -35 -29 -36 -29 -3 0 35 46 124 82 157 34 32 50 36 41 11z m289 -99 c4 -3 -7 -25 -23 -49 l-29 -43 0 -255 c0 -160 -4 -258 -10 -262 -15 -9 -13 550 1 578 18 32 46 47 61 31z m-227 -95 c4 -5 -5 -27 -19 -48 -25 -36 -26 -41 -26 -194 0 -98 -4 -157 -10 -157 -6 0 -11 59 -12 153 -3 220 -4 214 23 236 28 23 35 25 44 10z m493 -906 c-10 -2 -26 -2 -35 0 -10 3 -2 5 17 5 19 0 27 -2 18 -5z m-538 -58 c0 -14 -4 -25 -10 -25 -5 0 -10 11 -10 25 0 14 5 25 10 25 6 0 10 -11 10 -25z"/> <path d="M4970 1810 c-322 -29 -480 -206 -480 -538 0 -107 23 -220 59 -291 83 -162 265 -241 555 -241 359 0 547 114 612 370 23 90 15 311 -14 390 -56 157 -153 242 -330 290 -79 21 -278 31 -402 20z m243 -260 c82 -12 136 -44 174 -103 27 -40 28 -47 28 -167 0 -115 -2 -129 -25 -170 -19 -33 -40 -53 -80 -75 -54 -29 -58 -30 -200 -30 -142 0 -146 1 -200 30 -73 40 -102 95 -108 206 -11 193 51 290 198 309 82 11 137 11 213 0z"/> <path d="M3242 1788 c-8 -8 -12 -50 -12 -124 0 -107 1 -112 23 -118 12 -3 97 -6 188 -6 127 0 169 -3 178 -13 7 -10 12 -131 13 -383 l3 -369 150 0 150 0 5 370 c3 204 9 376 13 383 6 9 53 12 175 12 92 0 177 3 190 6 21 6 22 11 22 118 0 74 -4 116 -12 124 -17 17 -1069 17 -1086 0z"/> <path d="M5956 1784 c-14 -13 -16 -53 -16 -282 0 -317 11 -435 44 -509 51 -110 165 -195 310 -230 36 -9 132 -17 234 -20 152 -4 183 -2 265 17 230 54 343 168 368 373 6 46 9 211 7 366 -3 237 -5 283 -18 291 -24 15 -265 13 -278 -3 -7 -8 -12 -126 -14 -327 -3 -351 -5 -362 -74 -409 -58 -40 -103 -50 -220 -51 -125 0 -196 16 -244 56 -64 54 -64 58 -68 404 -2 196 -8 320 -14 328 -17 20 -262 17 -282 -4z"/> <path d="M7421 1786 c-8 -9 -10 -152 -9 -512 l3 -499 150 0 150 0 3 124 c1 71 7 130 14 138 14 18 208 18 230 1 8 -7 45 -56 82 -108 37 -52 78 -110 92 -127 l25 -33 164 0 c90 0 166 4 169 9 6 9 3 14 -110 176 -88 125 -90 130 -58 152 64 44 105 89 131 141 26 53 28 66 28 177 0 101 -4 127 -22 167 -50 110 -150 176 -300 198 -39 5 -220 10 -401 10 -266 0 -332 -3 -341 -14z m709 -261 c38 -20 50 -43 50 -100 0 -102 -30 -115 -259 -115 -141 0 -172 3 -185 16 -20 19 -23 183 -4 202 19 19 360 16 398 -3z"/> <path d="M8731 1787 c-8 -11 -10 -147 -9 -513 l3 -499 148 -3 147 -3 -2 513 -3 513 -136 3 c-107 2 -139 0 -148 -11z"/> <path d="M9237 1793 c-4 -3 -7 -12 -7 -19 0 -6 79 -117 175 -245 96 -128 175 -241 175 -251 0 -11 -79 -124 -175 -252 -96 -128 -175 -238 -175 -244 0 -9 45 -12 158 -12 l158 0 26 27 c13 16 77 98 142 185 64 86 123 162 132 169 30 25 62 -5 201 -191 l138 -185 159 -3 c88 -1 163 1 168 6 4 4 -73 116 -172 247 -99 132 -180 246 -180 252 0 7 81 121 181 254 99 133 178 246 176 252 -4 13 -262 23 -304 12 -14 -3 -76 -77 -167 -199 -80 -106 -151 -196 -158 -198 -28 -11 -52 14 -187 194 -77 103 -149 192 -160 198 -21 11 -293 14 -304 3z"/> </g> </svg> 